<?xml version="1.0" encoding="UTF-8"?>
<svg id="Layer_1" xmlns="http://www.w3.org/2000/svg" xmlns:xlink="http://www.w3.org/1999/xlink" viewBox="0 0 939.67 912.53">
  <defs>
    <style>
      .cls-1 {
        fill: url(#linear-gradient-2);
      }

      .cls-2 {
        fill: url(#linear-gradient-3);
        fill-rule: evenodd;
      }

      .cls-3 {
        fill: url(#linear-gradient);
      }
    </style>
    <linearGradient id="linear-gradient" x1="467.05" y1="107.66" x2="467.05" y2="507.4" gradientUnits="userSpaceOnUse">
      <stop offset="0" stop-color="#ffce28"/>
      <stop offset="1" stop-color="#fa8a31"/>
    </linearGradient>
    <linearGradient id="linear-gradient-2" x1="467.05" y1="107.66" x2="467.05" y2="507.4" xlink:href="#linear-gradient"/>
    <linearGradient id="linear-gradient-3" x1="469.83" y1="82.7" x2="469.83" y2="499.9" xlink:href="#linear-gradient"/>
  </defs>
  <g>
    <g>
      <path d="M99.02,894.19v18.34H0v-128.23h18.36v109.88h80.66Z"/>
      <path d="M199.79,803.66v-18.36h113.52v18.36h-113.52ZM246.39,912.53v-99.7h18.36v99.7h-18.36Z"/>
      <path d="M469.22,785.28v18.35h-112.53v-18.35h112.53ZM375.04,894.19h94.18v18.34h-112.53v-99.71h18.35v22.3h81.85v18.35h-81.85v40.71Z"/>
      <path d="M728.21,912.53h-25.96l-50.65-50.64-18.67,18.68v31.96h-18.35v-39.67l18.35-18.36v.11l15.09-15.09,54.21-54.22h25.95l-63.6,63.61,63.62,63.61ZM632.09,842.39l-17.51,17.51v-74.59h18.35v56.23l-.85.85Z"/>
      <path d="M826.15,803.66v-18.36h113.52v18.36h-113.52ZM872.73,912.53v-99.7h18.37v99.7h-18.37Z"/>
    </g>
    <polygon points="784.56 912.53 784.56 806.31 767.05 823.83 766.21 824.67 766.21 912.53 784.56 912.53"/>
    <polygon points="766.21 811.6 766.21 811.7 784.56 793.35 784.56 785.31 766.21 785.31 766.21 811.6"/>
    <polygon points="158.58 912.03 158.58 805.82 141.06 823.31 140.21 824.16 140.21 912.03 158.58 912.03"/>
    <polygon points="140.21 811.1 140.21 811.2 158.58 792.85 158.58 784.81 140.21 784.81 140.21 811.1"/>
  </g>
  <path class="cls-3" d="M582.8,318.44l-75.8-28.51,95.27,1.39,90.4,23.64-74.41-152.29-26.43,52.16-75.8,20.86-9.74-54.24-10.85-8.07,20.93-15.22-4.52-18.43-3.48,14.95-21.73,12.16h0s-19.61-14.59-19.61-14.59l-19.62,14.59h0s-21.73-12.16-21.73-12.16l-3.48-14.95-4.52,18.43,20.93,15.22-10.85,8.07-6.95,54.24-92.49-26.43-9.74-43.81-77.19,155.08,90.4-29.21,95.27-1.39-75.8,28.51-36.86,31.99-11.13,35.47,79.97-6.96,83.76-86.23,83.76,86.23,79.97,6.96-11.13-35.47-36.86-31.99ZM375.99,365.03l-49.72,4.87.69-8.34,27.27-26.43,72.17-24.34-50.42,54.24ZM500.74,301.75l-33.69-31.99-33.69,31.99v-24.34l-109.88-1.39-38.94,21.56,34.77-73.02,17.39,7.65,93.88,26.42,13.21-66.76,23.26-17.39,23.26,17.39,13.21,66.76,93.88-26.42,22.95-13.21,34.77,73.02-44.51-15.99-109.87,1.39v24.34ZM558.11,365.03l-50.42-54.24,72.16,24.34,27.28,26.43.7,8.34-49.72-4.87Z"/>
  <path class="cls-1" d="M520.29,361.55l-45.2-50.76,5.56,53.55-13.6,21.56-13.6-21.56,5.56-53.55-45.2,50.76-4.87,97.36,58.11,102.92,58.11-102.92-4.87-97.36ZM467.05,529.85l-41.41-73.02,3.48-86.93,8.88-9.73,29.05,61.89,29.05-61.89,8.89,9.73,3.48,86.93-41.42,73.02Z"/>
  <path class="cls-2" d="M295.85,104.97l-48.54-3.4-22.84,28.61v55.58l-31.49,50.02-33.96,3.09-18.53,48.79,30.87,33.96v62.37l-30.87,32.73,20.37,48.79,37.67,8.65,27.79,48.78-8.03,56.81,40.29,26.55,36.28-12.35,59.88,35.82v31.49l53.13,17.91,31.49-32.11h60.92l31.5,32.11,53.14-17.91v-31.49l59.87-35.82,36.28,12.35,40.29-26.55-8.03-56.81,27.79-48.78,37.67-8.65,20.38-48.79-30.87-32.73v-62.37l30.87-33.96-18.53-48.79-33.96-3.09-31.5-50.02v-55.58l-22.84-28.61-50.64,5.5L470.26,0l151.59,140.85c42.17,46.56,87.47,104.94,98.29,150.71,21.41,90.57-21.4,302.59-250.3,315.97-228.9-13.38-271.71-225.4-250.31-315.97,12.25-51.86,68.79-119.91,114.87-168.61L470.26,0"/>
</svg>